<?xml version="1.0" encoding="UTF-8"?>
<svg width="1980px" height="356px" viewBox="0 0 1980 356" version="1.1" xmlns="http://www.w3.org/2000/svg" xmlns:xlink="http://www.w3.org/1999/xlink">
    <!-- Generator: Sketch 46.2 (44496) - http://www.bohemiancoding.com/sketch -->
    <title>Group</title>
    <desc>Created with Sketch.</desc>
    <defs></defs>
    <g id="Page-1" stroke="none" stroke-width="1" fill="none" fill-rule="evenodd">
        <g id="Group">
            <g id="Slice" fill-rule="nonzero" fill="#FC5A07">
                <path d="M136.201,56.059 C136.201,44.838 145.33,35.709 156.551,35.709 L243.449,35.709 C254.67,35.709 263.799,44.838 263.799,56.059 L263.799,68.459 L299.225,68.459 L299.225,56.059 C299.225,25.303 274.204,0.282 243.449,0.282 L156.551,0.282 C125.796,0.282 100.775,25.303 100.775,56.059 L100.775,68.459 L136.201,68.459 L136.201,56.059" id="Fill-3"></path>
                <path d="M226.632,193.431 L226.632,154.007 C226.632,149.807 223.228,146.403 219.029,146.403 L180.971,146.403 C176.772,146.403 173.368,149.807 173.368,154.007 L173.368,193.431 L133.943,193.431 C129.744,193.431 126.339,196.836 126.339,201.035 L126.339,239.092 C126.339,243.292 129.744,246.696 133.943,246.696 L173.368,246.696 L173.368,286.121 C173.368,290.32 176.772,293.724 180.971,293.724 L219.029,293.724 C223.228,293.724 226.632,290.32 226.632,286.121 L226.632,246.696 L266.057,246.696 C270.256,246.696 273.661,243.292 273.661,239.092 L273.661,201.035 C273.661,196.836 270.256,193.431 266.057,193.431 L226.632,193.431" id="Fill-4"></path>
                <path d="M200,318.253 C145.2,318.253 100.775,273.829 100.775,219.028 C100.775,164.228 145.2,119.803 200,119.803 C254.8,119.803 299.225,164.228 299.225,219.028 C299.225,273.829 254.8,318.253 200,318.253 Z M364.778,82.339 L35.222,82.339 C16.105,82.339 0.609,97.835 0.609,116.951 L0.609,321.105 C0.609,340.221 16.105,355.718 35.222,355.718 L364.778,355.718 C383.895,355.718 399.391,340.221 399.391,321.105 L399.391,116.951 C399.391,97.835 383.895,82.339 364.778,82.339 L364.778,82.339 Z" id="Fill-5"></path>
            </g>
            <text id="TaxDoctor" font-family="Helvetica" font-size="340" font-weight="normal">
                <tspan x="453" y="341" fill="#B2B2B2">Tax</tspan>
                <tspan x="982.091797" y="341" fill="#FC5A07">Doctor</tspan>
            </text>
        </g>
    </g>
</svg>